<?xml version="1.0" encoding="UTF-8"?>
<svg width="24px" height="24px" viewBox="0 0 24 24" version="1.1" xmlns="http://www.w3.org/2000/svg" xmlns:xlink="http://www.w3.org/1999/xlink">
    <title>54E44603-B599-4106-B94D-F694415F3890@1x</title>
    <g id="Symbols" stroke="none" stroke-width="1" fill="none" fill-rule="evenodd">
        <g id="Duplicate" fill="#121212">
            <path d="M16.15,3.99999992 C16.7316368,3.99999992 17.2887567,4.23426564 17.6953037,4.6502235 C18.0566789,5.01996382 18.2719334,5.50536223 18.3058502,6.01705654 L18.31,6.21 L18.31,7.21 L18.47,7.21 C19.1992362,7.21517202 19.7959626,7.77324783 19.8636424,8.48486914 L19.8700358,8.62 L19.8700358,18.48 C19.8726646,18.8530327 19.7263422,19.2117026 19.4635019,19.4764203 C19.2335166,19.7080483 18.9309661,19.8509743 18.6090129,19.8830866 L18.47,19.89 L8.6,19.89 C7.86708565,19.89 7.26477824,19.3308052 7.19645458,18.6157924 L7.19,18.48 L7.19,18.22 L6.28,18.22 C5.14421441,18.22 4.21412828,17.3392959 4.13539827,16.2235442 L4.13,16.07 L4.13,6.2 C4.11928804,5.62196359 4.34074679,5.06375859 4.74482484,4.65028337 C5.10400534,4.28274984 5.58082663,4.0568415 6.0883917,4.00936692 L6.28,3.99999992 L16.15,3.99999992 Z M14.28,10 L12.78,10 L12.78,12.8 L10,12.8 L10,14.3 L12.78,14.3 L12.78,17.09 L14.28,17.09 L14.28,14.3 L17.07,14.3 L17.07,12.8 L14.28,12.8 L14.28,10 Z M16.15,5.54 L6.28,5.54 C6.1058626,5.54 5.93899884,5.60983235 5.81680861,5.73390242 C5.69461839,5.8579725 5.62732096,6.02588321 5.62992297,6.2 L5.62992297,6.2 L5.62992297,16.07 C5.62992297,16.4289851 5.92101491,16.72 6.28,16.72 L6.28,16.72 L7.19,16.72 L7.19,8.62 C7.1873355,8.24431512 7.33471154,7.88310174 7.59942718,7.61650868 C7.86414282,7.34991563 8.22430567,7.19999055 8.6,7.2 L8.6,7.2 L16.81,7.2 L16.81,6.2 C16.8046323,5.83773874 16.5122613,5.54536771 16.15,5.54 L16.15,5.54 Z"></path>
        </g>
    </g>
</svg>