<?xml version="1.0" encoding="UTF-8"?>
<svg width="24px" height="24px" viewBox="0 0 24 24" version="1.1" xmlns="http://www.w3.org/2000/svg" xmlns:xlink="http://www.w3.org/1999/xlink">
    <title>2B499B1F-83CF-49E0-8662-EF5DB1F9A424@1x</title>
    <g id="Symbols" stroke="none" stroke-width="1" fill="none" fill-rule="evenodd">
        <g id="Favorite-off" fill="#121212">
            <path d="M11.92,4.64 L14.14,9.63 L19.83,10.1 L15.51,13.7 L16.81,19 L11.9,16.18 L7,19 L8.31,13.67 L4,10.1 L9.68,9.64 L11.91,4.64 L11.92,4.64 Z M11.92,8.33 L11.91,8.33 L11.05,10.24 L10.69,11.05 L9.8,11.13 L7.8,11.29 L9.28,12.51 L10,13.11 L9.77,14 L9.31,15.92 L11.17,14.85 L11.92,14.42 L12.66,14.85 L14.52,15.92 L14.05,14.02 L13.83,13.11 L14.56,12.51 L16.02,11.29 L14.02,11.13 L13.13,11.05 L12.77,10.24 L11.92,8.33 Z"></path>
        </g>
    </g>
</svg>