<?xml version="1.0" encoding="UTF-8"?>
<svg width="24px" height="24px" viewBox="0 0 24 24" version="1.1" xmlns="http://www.w3.org/2000/svg" xmlns:xlink="http://www.w3.org/1999/xlink">
    <title>1701D7A0-4ECE-430D-98E8-C81E7EE11605@1x</title>
    <g id="Symbols" stroke="none" stroke-width="1" fill="none" fill-rule="evenodd">
        <g id="Language" fill="#121212">
            <path d="M12,4 C7.581722,4 4,7.581722 4,12 C4,16.418278 7.581722,20 12,20 C16.418278,20 20,16.418278 20,12 C19.9948003,7.58387759 16.4161224,4.00519973 12,4 Z M18.8078949,11.4168436 L15.0717937,11.4168436 C15.0651465,10.4418094 14.9597622,9.46995527 14.7572541,8.51615947 C14.5267235,7.42591884 14.1595887,6.36911182 13.6645435,5.37076354 C16.4914012,6.08549808 18.5555789,8.51196731 18.8078949,11.4168436 L18.8078949,11.4168436 Z M12.214516,5.17071636 C12.5290556,5.67397971 13.2348824,6.95038138 13.6274279,8.81937564 C13.8045721,9.67358938 13.8968662,10.5432185 13.9029645,11.4155854 L9.96618699,11.4155854 C9.97246768,10.5431963 10.0649727,9.6735645 10.2423528,8.81937564 C10.63364,6.95541401 11.3363215,5.6802705 11.6521192,5.17449084 C11.7672407,5.16882913 11.8836204,5.16568373 12,5.16568373 C12.071715,5.16694189 12.1434301,5.16820005 12.214516,5.17071636 Z M10.1857356,5.41165369 C9.70214215,6.39823879 9.34291609,7.44105091 9.11630101,8.51615947 C8.91345484,9.46990117 8.80806679,10.4417897 8.80176142,11.4168436 L5.19525045,11.4168436 C5.44339621,8.57016292 7.43254233,6.17656796 10.1857356,5.41165369 L10.1857356,5.41165369 Z M5.19525045,12.5837855 L8.83321538,12.5837855 C8.95211135,14.3502398 9.38995046,16.3953763 10.3933318,18.641818 C7.54107997,17.9456699 5.45003223,15.508687 5.19525045,12.5837855 Z M11.7741606,18.8292836 C10.6267201,16.4922545 10.1385547,14.3798066 10.0070771,12.5837855 L13.8689943,12.5837855 C13.7381458,14.3810647 13.2487222,16.4941417 12.1000236,18.8318 L12.0031454,18.8318 C11.9263977,18.8330581 11.8471338,18.8318 11.7710152,18.8292836 L11.7741606,18.8292836 Z M13.4644963,18.6757883 C14.478572,16.4161359 14.9201856,14.3590469 15.0371943,12.5837855 L18.808524,12.5837855 C18.548184,15.5644555 16.3830945,18.0311293 13.4613509,18.6757883 L13.4644963,18.6757883 Z"></path>
        </g>
    </g>
</svg>