<?xml version="1.0" encoding="UTF-8"?>
<svg width="24px" height="24px" viewBox="0 0 24 24" version="1.1" xmlns="http://www.w3.org/2000/svg" xmlns:xlink="http://www.w3.org/1999/xlink">
    <title>750D9E97-F1E2-44C6-B8C1-15443115E2BB@1x</title>
    <g id="Symbols" stroke="none" stroke-width="1" fill="none" fill-rule="evenodd">
        <g id="Filter-Applied" fill="#121212">
            <path d="M16.49,5 C16.7727943,4.98384069 17.0405679,5.12838219 17.1822391,5.37366364 C17.3239103,5.61894509 17.3153077,5.92311767 17.16,6.16 L17.16,6.16 L11.94,12.87 L11.94,20.26 C11.9418649,20.5234609 11.7891487,20.7635582 11.5497419,20.8735559 C11.3103351,20.9835536 11.028685,20.94303 10.83,20.77 L10.83,20.77 L8.23,18.55 C8.0878303,18.4262839 8.00433936,18.2484119 8,18.06 L8,18.06 L8,12.87 L2.64,6.11 C2.49775678,5.88927289 2.48696028,5.60861112 2.61182637,5.37760885 C2.73669246,5.14660658 2.97741673,5.00190198 3.24,5 L3.24,5 Z M20.43,1.53 C20.7433333,1.53 21.0283333,1.57833333 21.285,1.675 C21.5416667,1.77166667 21.7633333,1.90833333 21.95,2.085 C22.1366667,2.26166667 22.28,2.47333333 22.38,2.72 C22.48,2.96666667 22.53,3.24333333 22.53,3.55 C22.53,3.81666667 22.4733333,4.08833333 22.36,4.365 C22.2466667,4.64166667 22.095,4.91833333 21.905,5.195 C21.715,5.47166667 21.4983333,5.74833333 21.255,6.025 C21.0116667,6.30166667 20.76,6.57333333 20.5,6.84 C20.66,6.82 20.8383333,6.80166667 21.035,6.785 C21.2316667,6.76833333 21.4066667,6.76 21.56,6.76 L21.56,6.76 L22.84,6.76 L22.84,8 L18.37,8 L18.37,7.16 L18.6684375,6.8796875 C18.9603125,6.6040625 19.2325,6.3425 19.485,6.095 C19.8216667,5.765 20.1116667,5.455 20.355,5.165 C20.5983333,4.875 20.7883333,4.605 20.925,4.355 C21.0616667,4.105 21.13,3.86666667 21.13,3.64 C21.13,3.32666667 21.05,3.08833333 20.89,2.925 C20.73,2.76166667 20.51,2.68 20.23,2.68 C19.9966667,2.68 19.79,2.745 19.61,2.875 C19.43,3.005 19.26,3.15666667 19.1,3.33 L19.1,3.33 L18.3,2.54 L18.4888,2.3498 C18.7416,2.10926667 18.9986667,1.921 19.26,1.785 C19.5866667,1.615 19.9766667,1.53 20.43,1.53 Z"></path>
        </g>
    </g>
</svg>