<?xml version="1.0" encoding="UTF-8"?>
<svg width="24px" height="24px" viewBox="0 0 24 24" version="1.1" xmlns="http://www.w3.org/2000/svg" xmlns:xlink="http://www.w3.org/1999/xlink">
    <title>50C49390-FD0D-4D5B-8C11-0EC4B5F15029@1x</title>
    <g id="Symbols" stroke="none" stroke-width="1" fill="none" fill-rule="evenodd">
        <g id="Photo" fill="#121212">
            <path d="M15.58,6.58991654 C15.7452566,6.58726792 15.9045484,6.65171147 16.0214185,6.76858152 C16.1382885,6.88545157 16.2027321,7.04474337 16.2,7.21 L16.2,8.14 L19.38,8.14 C19.7224165,8.14 20,8.41758346 20,8.76 L20,18 C20,18.3440713 19.7240279,18.6245386 19.38,18.63 L4.62,18.63 C4.27597208,18.6245386 4,18.3440713 4,18 L4,8.76 C4,8.41758346 4.27758346,8.14 4.62,8.14 L7.8,8.14 L7.8,7.21 C7.79726792,7.04474337 7.86171147,6.88545157 7.97858152,6.76858152 C8.09545157,6.65171147 8.25474337,6.58726792 8.42,6.58991654 L15.58,6.58991654 Z M12,9.21 C9.790861,9.21 8,11.000861 8,13.21 C8,15.419139 9.790861,17.21 12,17.21 C13.060866,17.21 14.0782816,16.7885726 14.8284271,16.0384271 C15.5785726,15.2882816 16,14.270866 16,13.21 C16,11.000861 14.209139,9.21 12,9.21 Z M12,10.75 C13.3586205,10.75 14.46,11.8513795 14.46,13.21 C14.46,14.5686205 13.3586205,15.67 12,15.67 C10.6413795,15.67 9.54,14.5686205 9.54,13.21 C9.54,11.8513795 10.6413795,10.75 12,10.75 Z"></path>
        </g>
    </g>
</svg>