<?xml version="1.0" encoding="UTF-8"?>
<svg width="24px" height="24px" viewBox="0 0 24 24" version="1.1" xmlns="http://www.w3.org/2000/svg" xmlns:xlink="http://www.w3.org/1999/xlink">
    <title>98CB931A-B794-4F5B-A69E-70BB51932258@1x</title>
    <g id="Symbols" stroke="none" stroke-width="1" fill="none" fill-rule="evenodd">
        <g id="Grid-view" fill="#121212">
            <path d="M14,15.86 L14,19.72 L10,19.72 L10,15.86 L14,15.86 Z M8,15.86 L8,19.72 L4,19.72 L4,15.86 L8,15.86 Z M20,15.86 L20,19.72 L16,19.72 L16,15.86 L20,15.86 Z M8,10.07 L8,13.93 L4,13.93 L4,10.07 L8,10.07 Z M14,10.07 L14,13.93 L10,13.93 L10,10.07 L14,10.07 Z M20,10.07 L20,13.93 L16,13.93 L16,10.07 L20,10.07 Z M8,4.28 L8,8.14 L4,8.14 L4,4.28 L8,4.28 Z M20,4.28 L20,8.14 L16,8.14 L16,4.28 L20,4.28 Z M14,4.28 L14,8.14 L10,8.14 L10,4.28 L14,4.28 Z"></path>
        </g>
    </g>
</svg>