<?xml version="1.0" encoding="UTF-8"?>
<svg width="24px" height="24px" viewBox="0 0 24 24" version="1.1" xmlns="http://www.w3.org/2000/svg" xmlns:xlink="http://www.w3.org/1999/xlink">
    <title>CADACB8B-C73D-4FD6-B712-0AB539B3BC4A@1x</title>
    <g id="Symbols" stroke="none" stroke-width="1" fill="none" fill-rule="evenodd">
        <g id="Notifications" fill="#121212">
            <path d="M13.23,18.5385127 C13.2771188,19.1274979 12.9895624,19.6930609 12.4858983,20.0020047 C11.9822342,20.3109485 11.3477658,20.3109485 10.8441017,20.0020047 C10.3404376,19.6930609 10.0528812,19.1274979 10.1,18.5385127 L13.23,18.5385127 Z M11.0439136,4.17667964 C11.4244647,3.94110679 11.9055353,3.94110679 12.2860864,4.17667964 C12.6666374,4.41225249 12.8811579,4.84284501 12.84,5.28851267 L12.84,5.28851267 L12.84,5.81851267 C15.1239444,6.37258467 16.7316048,8.41832219 16.73,10.7685127 L16.73,10.7685127 L16.73,14.7685127 L18.32,16.3185127 L18.32,17.1085127 L5,17.1085127 L5,16.3285127 L6.57,14.8185127 L6.57,10.8185127 C6.54464186,8.43954726 8.17372373,6.36163671 10.49,5.81851267 L10.49,5.81851267 L10.49,5.28851267 C10.4488421,4.84284501 10.6633626,4.41225249 11.0439136,4.17667964 Z"></path>
        </g>
    </g>
</svg>