<?xml version="1.0" encoding="UTF-8"?>
<svg width="24px" height="24px" viewBox="0 0 24 24" version="1.1" xmlns="http://www.w3.org/2000/svg" xmlns:xlink="http://www.w3.org/1999/xlink">
    <title>4AA35CB4-9A1C-4800-AFA3-22E86E34E40C@1x</title>
    <g id="Symbols" stroke="none" stroke-width="1" fill="none" fill-rule="evenodd">
        <g id="Audio" fill="#121212">
            <path d="M13.5,5.07 C16.965736,5.54561898 19.5482779,8.50678055 19.5482779,12.005 C19.5482779,15.5032194 16.965736,18.464381 13.5,18.94 L13.5,18.94 L13.5,17.43 C16.2588532,17.1161103 18.3427683,14.7816522 18.3427683,12.005 C18.3427683,9.22834776 16.2588532,6.89388972 13.5,6.58 L13.5,6.58 Z M11.7617228,5.61942835 C11.9115731,5.6855388 12.00598,5.83632361 12,6 L12,18 C11.9955426,18.1542017 11.9006102,18.2912845 11.7578296,18.3496947 C11.6150491,18.4081049 11.451257,18.376864 11.34,18.27 L7.64,14.58 L4.81,14.58 C4.47624557,14.5780426 4.19482772,14.330736 4.15,14 L4.15,9.83 C4.15,9.58147186 4.35147186,9.38 4.6,9.38 L7.6,9.38 L11.32,5.7 C11.4368592,5.58524088 11.6118724,5.5533179 11.7617228,5.61942835 Z M13.5,8.53 C15.1834796,8.83070349 16.4092948,10.2948754 16.4092948,12.005 C16.4092948,13.7151246 15.1834796,15.1792965 13.5,15.48 L13.5,15.48 L13.5,13.94 C14.3802202,13.7099409 14.994258,12.9147883 14.994258,12.005 C14.994258,11.0952117 14.3802202,10.3000591 13.5,10.07 L13.5,10.07 Z"></path>
        </g>
    </g>
</svg>