<?xml version="1.0" encoding="UTF-8"?>
<svg width="24px" height="24px" viewBox="0 0 24 24" version="1.1" xmlns="http://www.w3.org/2000/svg" xmlns:xlink="http://www.w3.org/1999/xlink">
    <title>On Dark/Light-mode/Enabled</title>
    <g id="On-Dark/Light-mode/Enabled" stroke="none" stroke-width="1" fill="none" fill-rule="evenodd">
        <path d="M10.2634364,4.93054744 C10.2249019,4.85073359 10.2249019,4.75769651 10.2634364,4.67788266 L11.7288922,2.16386809 C11.7876214,2.0624461 11.8959413,2 12.01314,2 C12.1303388,2 12.2386587,2.0624461 12.2973879,2.16386809 L13.7502104,4.6905159 C13.7752386,4.76424932 13.7752386,4.84418078 13.7502104,4.9179142 C13.2016955,4.77292381 12.6373119,4.69654107 12.0699896,4.6905159 C11.4600417,4.69328345 10.852945,4.77394664 10.2634364,4.93054744 L10.2634364,4.93054744 Z M10.2634364,19.1429414 C10.2535254,19.1887331 10.2535254,19.2361153 10.2634364,19.281907 L11.7162589,21.8085548 C11.7749882,21.9099768 11.8833081,21.9724229 12.0005068,21.9724229 C12.1177055,21.9724229 12.2260254,21.9099768 12.2847547,21.8085548 L13.7375772,19.281907 C13.7375772,19.281907 13.7375772,19.2061076 13.7375772,19.1682078 C13.180335,19.3110222 12.6073418,19.3831769 12.0320899,19.3829729 C11.4265132,19.3771473 10.823976,19.2965262 10.23817,19.1429414 L10.2634364,19.1429414 Z M4.73007773,12.0177945 C4.7319058,11.4036256 4.81257572,10.7922326 4.97010927,10.1986081 C4.88561016,10.1613064 4.78931037,10.1613064 4.70481125,10.1986081 L2.17816345,11.6387974 C2.06920481,11.6915684 2,11.8019801 2,11.9230453 C2,12.0441104 2.06920481,12.1545221 2.17816345,12.2072931 L4.70481125,13.6601156 C4.77854468,13.6851438 4.85847613,13.6851438 4.93220956,13.6601156 C4.80429225,13.1218371 4.73650015,12.5710263 4.73007773,12.0177945 Z M21.8228502,11.6640639 L19.2962023,10.2238746 C19.2471569,10.2065344 19.1936489,10.2065344 19.1446035,10.2238746 C19.3082782,10.8082791 19.3974175,11.4110308 19.4099015,12.0177945 C19.4072717,12.5879393 19.3394539,13.1559133 19.2077697,13.7106486 C19.244776,13.7222865 19.2844625,13.7222865 19.3214688,13.7106486 L21.8481166,12.2578261 C21.9471076,12.1947125 22.0048875,12.0835641 21.9996749,11.9662808 C21.9944623,11.8489975 21.9270499,11.7434132 21.8228502,11.6893303 L21.8228502,11.6640639 Z M5.80390305,8.22782283 C6.42595297,7.19097703 7.29370506,6.32322494 8.33055086,5.70117502 C8.28904656,5.61793824 8.21642863,5.55439755 8.12841903,5.52430968 L5.32383997,4.76631533 C5.2097832,4.73470216 5.08753863,4.76689582 5.00384771,4.85058673 C4.9201568,4.93427764 4.88796314,5.05652222 4.91957632,5.17057898 L5.63967094,8.03832425 C5.66293802,8.1230779 5.72331683,8.19274577 5.80390305,8.22782283 Z M18.3487094,15.8077663 C17.7312861,16.8482153 16.8625107,17.7169908 15.8220616,18.3344141 C15.8512551,18.340201 15.8813007,18.340201 15.9104943,18.3344141 L18.7150734,19.0797752 C18.8291301,19.1113883 18.9513747,19.0791947 19.0350656,18.9955038 C19.1187565,18.9118129 19.1509502,18.7895683 19.119337,18.6755115 L18.3613427,15.8835657 C18.3613427,15.8835657 18.3739759,15.8077663 18.3487094,15.8077663 L18.3487094,15.8077663 Z M5.74073686,15.8077663 C5.68208746,15.850461 5.64153006,15.9135502 5.6270377,15.9846316 L4.86904336,18.7765774 C4.83743019,18.8906342 4.86962384,19.0128788 4.95331476,19.0965697 C5.03700567,19.1802606 5.15925025,19.2124543 5.27330701,19.1808411 L8.07788608,18.3344141 C8.12821146,18.3408916 8.17915957,18.3408916 8.22948495,18.3344141 C7.2093214,17.703921 6.35574069,16.8373416 5.74073686,15.8077663 L5.74073686,15.8077663 Z M18.7529731,4.89264772 L15.948394,5.65064207 C15.8768373,5.63584144 15.8024354,5.65444191 15.7462622,5.70117502 C16.7821482,6.3244535 17.6496315,7.19193685 18.27291,8.22782283 C18.3166883,8.18711305 18.3474551,8.13437001 18.3613427,8.07622396 L19.119337,5.27164489 C19.162653,5.16051441 19.142322,5.03463597 19.0662231,4.94279251 C18.9901243,4.85094906 18.8702181,4.80757577 18.7529731,4.82948153 L18.7529731,4.89264772 Z M5.99338841,12.0177945 C5.98828958,14.4766881 7.46555716,16.6963069 9.73581304,17.6408291 C12.0060689,18.5853512 14.6217871,18.0685871 16.3622996,16.3316932 C18.102812,14.5947993 18.6250187,11.9801622 17.6852234,9.70794555 C16.7454281,7.43572888 14.5288885,5.9538398 12.0699896,5.9538398 C8.71891015,5.9538398 6.00036854,8.66672232 5.99338841,12.0177945 Z" id="Shape" fill="#A9ACF8"></path>
    </g>
</svg>