<?xml version="1.0" encoding="UTF-8"?>
<svg width="24px" height="24px" viewBox="0 0 24 24" version="1.1" xmlns="http://www.w3.org/2000/svg" xmlns:xlink="http://www.w3.org/1999/xlink">
    <title>7ADE1F24-CCEB-4BFD-AA35-5C5C853268EC@1x</title>
    <g id="Symbols" stroke="none" stroke-width="1" fill="none" fill-rule="evenodd">
        <g id="Column-Not-Fixed" fill="#121212">
            <path d="M11.4145508,3.25 C14.0738195,3.25 15.6538637,4.6652185 15.9375318,7.37939453 L15.9375318,7.37939453 L15.937,10 L16,10 C17.1045695,10 18,10.8954305 18,12 L18,17 C18,18.1045695 17.1045695,19 16,19 L8,19 C6.8954305,19 6,18.1045695 6,17 L6,12 C6,10.8954305 6.8954305,10 8,10 L14.439,10 L14.4417151,7.45849843 C14.2506419,5.65699961 13.3762854,4.81346979 11.6210039,4.7534573 L11.4145508,4.75 C9.55066958,4.75 8.75,5.54242587 8.75,7.37939453 L8.75,7.37939453 L7.25,7.37939453 C7.25,4.71050381 8.72569761,3.25 11.4145508,3.25 Z" id="Combined-Shape"></path>
        </g>
    </g>
</svg>