<?xml version="1.0" encoding="UTF-8"?>
<svg width="24px" height="24px" viewBox="0 0 24 24" version="1.1" xmlns="http://www.w3.org/2000/svg" xmlns:xlink="http://www.w3.org/1999/xlink">
    <title>AC32920E-C3FE-439C-9117-1D643F80884D@1x</title>
    <g id="Symbols" stroke="none" stroke-width="1" fill="none" fill-rule="evenodd">
        <g id="Image" fill="#121212">
            <path d="M19.37,4 C19.7179394,4 20,4.28206061 20,4.63 L20,4.63 L20,19.37 C20,19.7179394 19.7179394,20 19.37,20 L19.37,20 L4.63,20 C4.28206061,20 4,19.7179394 4,19.37 L4,19.37 L4,4.63 C4,4.28206061 4.28206061,4 4.63,4 L4.63,4 Z M18.5,5.5 L5.5,5.5 L5.5,18.5 L18.5,18.5 L18.5,5.5 Z M13.82,11.3459592 C13.9129999,11.3459592 14.0011447,11.3828997 14.0660068,11.4469924 L14.11,11.5 L17.5,16.85 C17.5711022,16.9554366 17.5774203,17.0917385 17.5163769,17.2033006 C17.4675422,17.2925502 17.3821279,17.3540289 17.2848227,17.3734977 L17.21,17.38 L6.82,17.38 C6.69251735,17.3785704 6.57589572,17.3079349 6.51557649,17.1956163 C6.46732111,17.1057615 6.46120635,17.0006013 6.49612989,16.9073144 L6.53,16.84 L9.3,12.64 C9.36508635,12.5436787 9.47375016,12.4859592 9.59,12.4859592 C9.68299987,12.4859592 9.77114468,12.5228997 9.83600683,12.5869924 L9.88,12.64 L11.3699242,14.9079592 L13.53,11.5 C13.5820691,11.422943 13.6620277,11.3705911 13.7514484,11.3527326 L13.82,11.3459592 Z M9.59,6.78997106 C10.5470679,6.79550048 11.32,7.57291627 11.32,8.53 C11.32,9.23467181 10.8949608,9.86976244 10.2435389,10.1384849 C9.59211688,10.4072074 8.84293379,10.2564983 8.3460936,9.75678625 C7.84925341,9.25707415 7.70286487,8.50703487 7.97533746,7.85717254 C8.24781004,7.20731021 8.88533983,6.78595016 9.59,6.78997106 Z"></path>
        </g>
    </g>
</svg>