<?xml version="1.0" encoding="UTF-8"?>
<svg width="24px" height="24px" viewBox="0 0 24 24" version="1.1" xmlns="http://www.w3.org/2000/svg" xmlns:xlink="http://www.w3.org/1999/xlink">
    <title>7CA3EB62-633C-4F9B-8F7E-128EDC437462@1x</title>
    <g id="Symbols" stroke="none" stroke-width="1" fill="none" fill-rule="evenodd">
        <g id="Security" fill="#121212">
            <path d="M12.37,4 C13.5369526,4 14.6561098,4.4635701 15.4812698,5.28873016 C16.3064299,6.11389023 16.77,7.23304744 16.77,8.4 L16.77,8.4 L16.77,10.59 L17.22,10.59 C17.3994213,10.5873218 17.5724188,10.6567267 17.7002393,10.7826676 C17.8280598,10.9086084 17.9000759,11.0805587 17.9000759,11.26 L17.9000759,11.26 L17.9000759,19.32 C17.9027248,19.5011688 17.8319575,19.6757171 17.7038373,19.8038373 C17.5757171,19.9319575 17.4011688,20.0027248 17.22,20.0000759 L17.22,20.0000759 L6.35,20.0000759 C5.97444637,20.0000759 5.67,19.6955536 5.67,19.32 L5.67,19.32 L5.67,11.26 C5.67546592,10.8883574 5.9783172,10.5899598 6.35,10.59 L6.35,10.59 L6.8,10.59 L6.8,8.4 C6.8,5.9699471 8.7699471,4 11.2,4 L11.2,4 Z M11.79,13.31 C11.1935325,13.31 10.71,13.7935325 10.71,14.39 C10.7106878,14.6109494 10.7845323,14.8254502 10.92,15 L10.92,15 L10.92,17.14 C10.9171764,17.2203973 10.9478758,17.2983551 11.0047603,17.3552397 C11.0616449,17.4121242 11.1396027,17.4428236 11.22,17.44 L11.22,17.44 L12.36,17.44 C12.5256854,17.44 12.66,17.3056854 12.66,17.14 L12.66,17.14 L12.66,15 C12.7899481,14.8225147 12.8631553,14.6098651 12.87,14.39 C12.87,13.7935325 12.3864675,13.31 11.79,13.31 Z M12.37,5.5 L11.2,5.5 C10.4256875,5.49198944 9.68033062,5.79398427 9.12996936,6.33871042 C8.57960811,6.88343658 8.27,7.62564602 8.27,8.4 L8.27,8.4 L8.27,10.59 L15.27,10.59 L15.27,8.4 C15.27,6.79837423 13.9716258,5.5 12.37,5.5 L12.37,5.5 Z"></path>
        </g>
    </g>
</svg>